<mxfile host="app.diagrams.net" modified="2024-04-12T12:55:00.593Z" agent="Mozilla/5.0 (Windows NT 10.0; Win64; x64) AppleWebKit/537.36 (KHTML, like Gecko) Chrome/123.0.0.0 Safari/537.36" etag="qldX6LwOuVpCX929leKa" version="24.2.3" type="device">
  <diagram name="Страница — 1" id="R-_pO3hd1xRywgZBRAXJ">
    <mxGraphModel dx="842" dy="440" grid="1" gridSize="10" guides="1" tooltips="1" connect="1" arrows="1" fold="1" page="1" pageScale="1" pageWidth="1169" pageHeight="827" math="0" shadow="0">
      <root>
        <mxCell id="0" />
        <mxCell id="1" parent="0" />
        <mxCell id="71FFQvNIRMbEX1_aDchm-4" value="clk_i" style="edgeStyle=orthogonalEdgeStyle;rounded=0;orthogonalLoop=1;jettySize=auto;html=1;exitX=0;exitY=0.64;exitDx=0;exitDy=0;exitPerimeter=0;startArrow=block;startFill=1;endArrow=none;endFill=0;align=left;" parent="1" source="71FFQvNIRMbEX1_aDchm-7" edge="1">
          <mxGeometry x="0.755" relative="1" as="geometry">
            <mxPoint x="260" y="261" as="targetPoint" />
            <mxPoint as="offset" />
          </mxGeometry>
        </mxCell>
        <mxCell id="71FFQvNIRMbEX1_aDchm-5" value="arbiter_ready_o" style="edgeStyle=orthogonalEdgeStyle;rounded=0;orthogonalLoop=1;jettySize=auto;html=1;exitX=0.63;exitY=1;exitDx=0;exitDy=0;exitPerimeter=0;" parent="1" source="71FFQvNIRMbEX1_aDchm-7" edge="1">
          <mxGeometry x="-0.3189" y="1" relative="1" as="geometry">
            <mxPoint x="739" y="439" as="targetPoint" />
            <mxPoint as="offset" />
          </mxGeometry>
        </mxCell>
        <mxCell id="71FFQvNIRMbEX1_aDchm-6" value="grant_o" style="edgeStyle=orthogonalEdgeStyle;rounded=0;orthogonalLoop=1;jettySize=auto;html=1;exitX=0.38;exitY=1;exitDx=0;exitDy=0;exitPerimeter=0;" parent="1" source="71FFQvNIRMbEX1_aDchm-7" edge="1">
          <mxGeometry x="-0.3391" y="1" relative="1" as="geometry">
            <mxPoint x="569" y="440" as="targetPoint" />
            <mxPoint as="offset" />
          </mxGeometry>
        </mxCell>
        <mxCell id="71FFQvNIRMbEX1_aDchm-7" value="" style="rounded=1;whiteSpace=wrap;html=1;points=[[0,0,0,0,0],[0,0.21,0,0,0],[0,0.36,0,0,0],[0,0.5,0,0,0],[0,0.64,0,0,0],[0,0.79,0,0,0],[0,1,0,0,0],[0.25,0,0,0,0],[0.25,1,0,0,0],[0.38,1,0,0,0],[0.5,0,0,0,0],[0.5,1,0,0,0],[0.63,1,0,0,0],[0.75,0,0,0,0],[0.75,1,0,0,0],[1,0,0,0,0],[1,0.25,0,0,0],[1,0.5,0,0,0],[1,0.75,0,0,0],[1,1,0,0,0]];fillColor=none;" parent="1" vertex="1">
          <mxGeometry x="311" y="50" width="679" height="329.5" as="geometry" />
        </mxCell>
        <mxCell id="71FFQvNIRMbEX1_aDchm-8" value="rst_in" style="edgeStyle=orthogonalEdgeStyle;rounded=0;orthogonalLoop=1;jettySize=auto;html=1;exitX=0;exitY=0.79;exitDx=0;exitDy=0;exitPerimeter=0;startArrow=block;startFill=1;endArrow=none;endFill=0;align=left;" parent="1" source="71FFQvNIRMbEX1_aDchm-7" edge="1">
          <mxGeometry x="0.7415" relative="1" as="geometry">
            <mxPoint x="260" y="310" as="targetPoint" />
            <mxPoint x="321" y="331.5" as="sourcePoint" />
            <mxPoint as="offset" />
          </mxGeometry>
        </mxCell>
        <mxCell id="71FFQvNIRMbEX1_aDchm-9" value="s_dest_i" style="edgeStyle=orthogonalEdgeStyle;rounded=0;orthogonalLoop=1;jettySize=auto;html=1;startArrow=block;startFill=1;endArrow=none;endFill=0;exitX=0;exitY=0.21;exitDx=0;exitDy=0;exitPerimeter=0;" parent="1" source="71FFQvNIRMbEX1_aDchm-7" edge="1">
          <mxGeometry x="0.2586" relative="1" as="geometry">
            <mxPoint x="230" y="120" as="targetPoint" />
            <mxPoint x="310" y="250" as="sourcePoint" />
            <mxPoint as="offset" />
          </mxGeometry>
        </mxCell>
        <mxCell id="71FFQvNIRMbEX1_aDchm-10" value="s_last_i" style="edgeStyle=orthogonalEdgeStyle;rounded=0;orthogonalLoop=1;jettySize=auto;html=1;startArrow=block;startFill=1;endArrow=none;endFill=0;exitX=0;exitY=0.5;exitDx=0;exitDy=0;exitPerimeter=0;" parent="1" source="71FFQvNIRMbEX1_aDchm-7" edge="1">
          <mxGeometry x="0.229" relative="1" as="geometry">
            <mxPoint x="229" y="215" as="targetPoint" />
            <mxPoint x="300" y="270" as="sourcePoint" />
            <mxPoint as="offset" />
          </mxGeometry>
        </mxCell>
        <mxCell id="71FFQvNIRMbEX1_aDchm-11" value="s_valid_i" style="edgeStyle=orthogonalEdgeStyle;rounded=0;orthogonalLoop=1;jettySize=auto;html=1;startArrow=block;startFill=1;endArrow=none;endFill=0;exitX=0;exitY=0.36;exitDx=0;exitDy=0;exitPerimeter=0;" parent="1" source="71FFQvNIRMbEX1_aDchm-7" edge="1">
          <mxGeometry x="0.2549" relative="1" as="geometry">
            <mxPoint x="230" y="170" as="targetPoint" />
            <mxPoint x="270" y="190" as="sourcePoint" />
            <mxPoint as="offset" />
            <Array as="points">
              <mxPoint x="300" y="169" />
              <mxPoint x="230" y="169" />
            </Array>
          </mxGeometry>
        </mxCell>
        <mxCell id="71FFQvNIRMbEX1_aDchm-12" value="" style="endArrow=none;html=1;rounded=0;" parent="1" edge="1">
          <mxGeometry width="50" height="50" relative="1" as="geometry">
            <mxPoint x="289" y="173" as="sourcePoint" />
            <mxPoint x="299" y="163" as="targetPoint" />
          </mxGeometry>
        </mxCell>
        <mxCell id="71FFQvNIRMbEX1_aDchm-13" value="" style="endArrow=none;html=1;rounded=0;" parent="1" edge="1">
          <mxGeometry width="50" height="50" relative="1" as="geometry">
            <mxPoint x="288" y="220.25" as="sourcePoint" />
            <mxPoint x="298" y="210.25" as="targetPoint" />
          </mxGeometry>
        </mxCell>
        <mxCell id="71FFQvNIRMbEX1_aDchm-14" value="" style="endArrow=none;html=1;rounded=0;" parent="1" edge="1">
          <mxGeometry width="50" height="50" relative="1" as="geometry">
            <mxPoint x="290" y="125" as="sourcePoint" />
            <mxPoint x="300" y="115" as="targetPoint" />
          </mxGeometry>
        </mxCell>
        <mxCell id="71FFQvNIRMbEX1_aDchm-15" value="" style="endArrow=none;html=1;rounded=0;" parent="1" edge="1">
          <mxGeometry width="50" height="50" relative="1" as="geometry">
            <mxPoint x="734" y="427" as="sourcePoint" />
            <mxPoint x="744" y="417" as="targetPoint" />
          </mxGeometry>
        </mxCell>
        <mxCell id="71FFQvNIRMbEX1_aDchm-16" value="" style="endArrow=none;html=1;rounded=0;" parent="1" edge="1">
          <mxGeometry width="50" height="50" relative="1" as="geometry">
            <mxPoint x="564" y="427" as="sourcePoint" />
            <mxPoint x="574" y="417" as="targetPoint" />
          </mxGeometry>
        </mxCell>
        <mxCell id="71FFQvNIRMbEX1_aDchm-46" value="" style="endArrow=none;html=1;rounded=0;exitX=0;exitY=0.5;exitDx=0;exitDy=0;exitPerimeter=0;" parent="1" source="71FFQvNIRMbEX1_aDchm-7" edge="1">
          <mxGeometry width="50" height="50" relative="1" as="geometry">
            <mxPoint x="311" y="214.67000000000002" as="sourcePoint" />
            <mxPoint x="359" y="214.67000000000002" as="targetPoint" />
          </mxGeometry>
        </mxCell>
        <mxCell id="71FFQvNIRMbEX1_aDchm-47" value="" style="endArrow=none;html=1;rounded=0;exitX=0;exitY=0.64;exitDx=0;exitDy=0;exitPerimeter=0;" parent="1" source="71FFQvNIRMbEX1_aDchm-7" edge="1">
          <mxGeometry width="50" height="50" relative="1" as="geometry">
            <mxPoint x="311" y="260" as="sourcePoint" />
            <mxPoint x="359" y="261" as="targetPoint" />
          </mxGeometry>
        </mxCell>
        <mxCell id="71FFQvNIRMbEX1_aDchm-48" value="" style="endArrow=none;html=1;rounded=0;exitX=0;exitY=0.79;exitDx=0;exitDy=0;exitPerimeter=0;" parent="1" source="71FFQvNIRMbEX1_aDchm-7" edge="1">
          <mxGeometry width="50" height="50" relative="1" as="geometry">
            <mxPoint x="311" y="310" as="sourcePoint" />
            <mxPoint x="359" y="310" as="targetPoint" />
          </mxGeometry>
        </mxCell>
        <mxCell id="71FFQvNIRMbEX1_aDchm-49" value="" style="endArrow=none;html=1;rounded=0;exitX=0.38;exitY=1;exitDx=0;exitDy=0;exitPerimeter=0;" parent="1" source="71FFQvNIRMbEX1_aDchm-7" edge="1">
          <mxGeometry width="50" height="50" relative="1" as="geometry">
            <mxPoint x="608" y="330.68965517241395" as="sourcePoint" />
            <mxPoint x="569" y="342" as="targetPoint" />
          </mxGeometry>
        </mxCell>
        <mxCell id="71FFQvNIRMbEX1_aDchm-50" value="" style="endArrow=none;html=1;rounded=0;exitX=0.63;exitY=1;exitDx=0;exitDy=0;exitPerimeter=0;" parent="1" source="71FFQvNIRMbEX1_aDchm-7" edge="1">
          <mxGeometry width="50" height="50" relative="1" as="geometry">
            <mxPoint x="739" y="380" as="sourcePoint" />
            <mxPoint x="739" y="343" as="targetPoint" />
          </mxGeometry>
        </mxCell>
        <mxCell id="71FFQvNIRMbEX1_aDchm-51" value="Комб. схема формирования масок обращений мастеров" style="rounded=0;whiteSpace=wrap;html=1;" parent="1" vertex="1">
          <mxGeometry x="390" y="100" width="120" height="90" as="geometry" />
        </mxCell>
        <mxCell id="71FFQvNIRMbEX1_aDchm-53" value="" style="endArrow=none;html=1;rounded=0;exitX=0;exitY=0.21;exitDx=0;exitDy=0;exitPerimeter=0;" parent="1" source="71FFQvNIRMbEX1_aDchm-7" edge="1">
          <mxGeometry width="50" height="50" relative="1" as="geometry">
            <mxPoint x="410" y="170" as="sourcePoint" />
            <mxPoint x="390" y="119" as="targetPoint" />
          </mxGeometry>
        </mxCell>
        <mxCell id="71FFQvNIRMbEX1_aDchm-54" value="" style="endArrow=none;html=1;rounded=0;exitX=0;exitY=0.36;exitDx=0;exitDy=0;exitPerimeter=0;" parent="1" source="71FFQvNIRMbEX1_aDchm-7" edge="1">
          <mxGeometry width="50" height="50" relative="1" as="geometry">
            <mxPoint x="330" y="180" as="sourcePoint" />
            <mxPoint x="390" y="169" as="targetPoint" />
          </mxGeometry>
        </mxCell>
        <mxCell id="71FFQvNIRMbEX1_aDchm-62" value="round_robin_arbiter[0]" style="rounded=1;whiteSpace=wrap;html=1;" parent="1" vertex="1">
          <mxGeometry x="724" y="110" width="130" height="60" as="geometry" />
        </mxCell>
        <mxCell id="71FFQvNIRMbEX1_aDchm-63" value="round_robin_arbiter[M]" style="rounded=1;whiteSpace=wrap;html=1;" parent="1" vertex="1">
          <mxGeometry x="724" y="255" width="130" height="60" as="geometry" />
        </mxCell>
        <mxCell id="71FFQvNIRMbEX1_aDchm-67" value="grant_o[0]" style="endArrow=classic;html=1;rounded=0;exitX=1;exitY=0.25;exitDx=0;exitDy=0;align=left;" parent="1" source="71FFQvNIRMbEX1_aDchm-62" edge="1">
          <mxGeometry x="-0.8148" width="50" height="50" relative="1" as="geometry">
            <mxPoint x="844" y="185" as="sourcePoint" />
            <mxPoint x="944" y="125" as="targetPoint" />
            <Array as="points">
              <mxPoint x="944" y="125" />
            </Array>
            <mxPoint as="offset" />
          </mxGeometry>
        </mxCell>
        <mxCell id="71FFQvNIRMbEX1_aDchm-68" value="arbiter_ready_o[0]" style="endArrow=classic;html=1;rounded=0;exitX=0.996;exitY=0.733;exitDx=0;exitDy=0;exitPerimeter=0;align=left;" parent="1" source="71FFQvNIRMbEX1_aDchm-62" edge="1">
          <mxGeometry x="-0.8237" y="-1" width="50" height="50" relative="1" as="geometry">
            <mxPoint x="864" y="135" as="sourcePoint" />
            <mxPoint x="972" y="155" as="targetPoint" />
            <Array as="points" />
            <mxPoint as="offset" />
          </mxGeometry>
        </mxCell>
        <mxCell id="71FFQvNIRMbEX1_aDchm-70" value="" style="endArrow=none;dashed=1;html=1;dashPattern=1 3;strokeWidth=2;rounded=0;" parent="1" edge="1">
          <mxGeometry width="50" height="50" relative="1" as="geometry">
            <mxPoint x="744" y="200" as="sourcePoint" />
            <mxPoint x="834" y="200" as="targetPoint" />
          </mxGeometry>
        </mxCell>
        <mxCell id="71FFQvNIRMbEX1_aDchm-71" value="grant_o[M]" style="endArrow=classic;html=1;rounded=0;exitX=1;exitY=0.25;exitDx=0;exitDy=0;align=left;" parent="1" source="71FFQvNIRMbEX1_aDchm-63" edge="1">
          <mxGeometry x="-0.8165" width="50" height="50" relative="1" as="geometry">
            <mxPoint x="855" y="270" as="sourcePoint" />
            <mxPoint x="944" y="270" as="targetPoint" />
            <mxPoint as="offset" />
          </mxGeometry>
        </mxCell>
        <mxCell id="71FFQvNIRMbEX1_aDchm-72" value="arbiter_ready_o[M]" style="endArrow=classic;html=1;rounded=0;exitX=1;exitY=0.75;exitDx=0;exitDy=0;align=left;" parent="1" source="71FFQvNIRMbEX1_aDchm-63" edge="1">
          <mxGeometry x="-0.8165" width="50" height="50" relative="1" as="geometry">
            <mxPoint x="854" y="299" as="sourcePoint" />
            <mxPoint x="974" y="300" as="targetPoint" />
            <mxPoint as="offset" />
            <Array as="points">
              <mxPoint x="964" y="300" />
            </Array>
          </mxGeometry>
        </mxCell>
        <mxCell id="QlDmspY_50V5dmf19h5O-2" value="" style="endArrow=none;html=1;rounded=0;" edge="1" parent="1">
          <mxGeometry width="50" height="50" relative="1" as="geometry">
            <mxPoint x="924" y="276" as="sourcePoint" />
            <mxPoint x="934" y="266" as="targetPoint" />
          </mxGeometry>
        </mxCell>
        <mxCell id="QlDmspY_50V5dmf19h5O-3" value="" style="endArrow=none;html=1;rounded=0;" edge="1" parent="1">
          <mxGeometry width="50" height="50" relative="1" as="geometry">
            <mxPoint x="924" y="131" as="sourcePoint" />
            <mxPoint x="934" y="121" as="targetPoint" />
          </mxGeometry>
        </mxCell>
        <mxCell id="QlDmspY_50V5dmf19h5O-5" value="requests_masks" style="endArrow=classic;html=1;rounded=0;exitX=1;exitY=0.5;exitDx=0;exitDy=0;entryX=0.426;entryY=0.455;entryDx=0;entryDy=0;entryPerimeter=0;" edge="1" parent="1" source="71FFQvNIRMbEX1_aDchm-51" target="71FFQvNIRMbEX1_aDchm-7">
          <mxGeometry x="0.1704" width="50" height="50" relative="1" as="geometry">
            <mxPoint x="530" y="165" as="sourcePoint" />
            <mxPoint x="580" y="115" as="targetPoint" />
            <Array as="points">
              <mxPoint x="560" y="145" />
              <mxPoint x="560" y="180" />
              <mxPoint x="560" y="200" />
            </Array>
            <mxPoint as="offset" />
          </mxGeometry>
        </mxCell>
        <mxCell id="QlDmspY_50V5dmf19h5O-6" value="" style="endArrow=none;html=1;rounded=0;" edge="1" parent="1">
          <mxGeometry width="50" height="50" relative="1" as="geometry">
            <mxPoint x="578" y="205" as="sourcePoint" />
            <mxPoint x="588" y="195" as="targetPoint" />
          </mxGeometry>
        </mxCell>
        <mxCell id="QlDmspY_50V5dmf19h5O-8" value="s_last_i" style="endArrow=classic;html=1;rounded=0;entryX=0;entryY=0.25;entryDx=0;entryDy=0;align=left;" edge="1" parent="1" target="71FFQvNIRMbEX1_aDchm-62">
          <mxGeometry x="-0.7143" width="50" height="50" relative="1" as="geometry">
            <mxPoint x="654" y="125" as="sourcePoint" />
            <mxPoint x="724" y="165" as="targetPoint" />
            <mxPoint as="offset" />
          </mxGeometry>
        </mxCell>
        <mxCell id="QlDmspY_50V5dmf19h5O-9" value="" style="endArrow=none;html=1;rounded=0;" edge="1" parent="1">
          <mxGeometry width="50" height="50" relative="1" as="geometry">
            <mxPoint x="704" y="130" as="sourcePoint" />
            <mxPoint x="714" y="120" as="targetPoint" />
          </mxGeometry>
        </mxCell>
        <mxCell id="QlDmspY_50V5dmf19h5O-10" value="s_last_i" style="endArrow=classic;html=1;rounded=0;entryX=0;entryY=0.25;entryDx=0;entryDy=0;align=left;" edge="1" parent="1" target="71FFQvNIRMbEX1_aDchm-63">
          <mxGeometry x="-0.7143" width="50" height="50" relative="1" as="geometry">
            <mxPoint x="654" y="270" as="sourcePoint" />
            <mxPoint x="724" y="270" as="targetPoint" />
            <mxPoint as="offset" />
          </mxGeometry>
        </mxCell>
        <mxCell id="QlDmspY_50V5dmf19h5O-11" value="" style="endArrow=none;html=1;rounded=0;" edge="1" parent="1">
          <mxGeometry width="50" height="50" relative="1" as="geometry">
            <mxPoint x="704" y="275" as="sourcePoint" />
            <mxPoint x="714" y="265" as="targetPoint" />
          </mxGeometry>
        </mxCell>
        <mxCell id="QlDmspY_50V5dmf19h5O-12" value="requests_masks[M]" style="endArrow=classic;html=1;rounded=0;entryX=0;entryY=0.75;entryDx=0;entryDy=0;align=left;" edge="1" parent="1" target="71FFQvNIRMbEX1_aDchm-63">
          <mxGeometry x="-0.7266" width="50" height="50" relative="1" as="geometry">
            <mxPoint x="585" y="300" as="sourcePoint" />
            <mxPoint x="754" y="215" as="targetPoint" />
            <mxPoint as="offset" />
          </mxGeometry>
        </mxCell>
        <mxCell id="QlDmspY_50V5dmf19h5O-15" value="" style="endArrow=none;html=1;rounded=0;" edge="1" parent="1">
          <mxGeometry width="50" height="50" relative="1" as="geometry">
            <mxPoint x="704" y="305" as="sourcePoint" />
            <mxPoint x="714" y="295" as="targetPoint" />
          </mxGeometry>
        </mxCell>
        <mxCell id="QlDmspY_50V5dmf19h5O-17" value="requests_masks[0]" style="endArrow=classic;html=1;rounded=0;entryX=0.004;entryY=0.668;entryDx=0;entryDy=0;align=left;entryPerimeter=0;" edge="1" parent="1" target="71FFQvNIRMbEX1_aDchm-62">
          <mxGeometry x="-0.7266" width="50" height="50" relative="1" as="geometry">
            <mxPoint x="585" y="150" as="sourcePoint" />
            <mxPoint x="724" y="150" as="targetPoint" />
            <mxPoint as="offset" />
          </mxGeometry>
        </mxCell>
        <mxCell id="QlDmspY_50V5dmf19h5O-18" value="" style="endArrow=none;html=1;rounded=0;" edge="1" parent="1">
          <mxGeometry width="50" height="50" relative="1" as="geometry">
            <mxPoint x="704" y="155" as="sourcePoint" />
            <mxPoint x="714" y="145" as="targetPoint" />
          </mxGeometry>
        </mxCell>
        <mxCell id="QlDmspY_50V5dmf19h5O-20" value="clk_i" style="endArrow=classic;html=1;rounded=0;entryX=0.25;entryY=0;entryDx=0;entryDy=0;" edge="1" parent="1" target="71FFQvNIRMbEX1_aDchm-62">
          <mxGeometry width="50" height="50" relative="1" as="geometry">
            <mxPoint x="756" y="76" as="sourcePoint" />
            <mxPoint x="780" y="60" as="targetPoint" />
          </mxGeometry>
        </mxCell>
        <mxCell id="QlDmspY_50V5dmf19h5O-21" value="rst_in" style="endArrow=classic;html=1;rounded=0;entryX=0.75;entryY=0;entryDx=0;entryDy=0;" edge="1" parent="1" target="71FFQvNIRMbEX1_aDchm-62">
          <mxGeometry width="50" height="50" relative="1" as="geometry">
            <mxPoint x="821" y="77" as="sourcePoint" />
            <mxPoint x="890" y="120" as="targetPoint" />
          </mxGeometry>
        </mxCell>
        <mxCell id="QlDmspY_50V5dmf19h5O-22" value="clk_i" style="endArrow=classic;html=1;rounded=0;entryX=0.25;entryY=0;entryDx=0;entryDy=0;" edge="1" parent="1" target="71FFQvNIRMbEX1_aDchm-63">
          <mxGeometry width="50" height="50" relative="1" as="geometry">
            <mxPoint x="756" y="220" as="sourcePoint" />
            <mxPoint x="756" y="255" as="targetPoint" />
          </mxGeometry>
        </mxCell>
        <mxCell id="QlDmspY_50V5dmf19h5O-23" value="clk_i" style="endArrow=classic;html=1;rounded=0;entryX=0.75;entryY=0;entryDx=0;entryDy=0;" edge="1" parent="1" target="71FFQvNIRMbEX1_aDchm-63">
          <mxGeometry width="50" height="50" relative="1" as="geometry">
            <mxPoint x="821" y="221" as="sourcePoint" />
            <mxPoint x="821" y="255" as="targetPoint" />
          </mxGeometry>
        </mxCell>
      </root>
    </mxGraphModel>
  </diagram>
</mxfile>
